HIERARCHY
ROOT joint_0
{
	OFFSET 0.000000 0.000000 0.000000
	CHANNELS 6 Xposition Yposition Zposition Zrotation Yrotation Xrotation 
	JOINT joint_1
	{
		OFFSET 0.511002 1.944000 108.288940
		CHANNELS 3 Zrotation Yrotation Xrotation
		JOINT joint_2
		{
			OFFSET -9.074005 1.512993 98.440063
			CHANNELS 3 Zrotation Yrotation Xrotation
			JOINT joint_3
			{
				OFFSET -8.590996 1.815002 98.366943
				CHANNELS 3 Zrotation Yrotation Xrotation
				JOINT joint_4
				{
					OFFSET 2.489998 3.531998 136.462036
					CHANNELS 3 Zrotation Yrotation Xrotation
					JOINT joint_5
					{
						OFFSET 22.708000 2.955002 80.357056
						CHANNELS 3 Zrotation Yrotation Xrotation
						End Site
						{
							OFFSET 0.000000 0.000000 0.000000
						}
					}
				}
				JOINT joint_6
				{
					OFFSET 2.860001 -27.684998 77.234009
					CHANNELS 3 Zrotation Yrotation Xrotation
					JOINT joint_7
					{
						OFFSET 5.449997 -131.244003 -18.851929
						CHANNELS 3 Zrotation Yrotation Xrotation
						JOINT joint_8
						{
							OFFSET 35.757000 -24.661995 -264.074097
							CHANNELS 3 Zrotation Yrotation Xrotation
							JOINT joint_9
							{
								OFFSET 49.392001 -1.747002 -239.960938
								CHANNELS 3 Zrotation Yrotation Xrotation
								End Site
								{
									OFFSET 0.000000 0.000000 0.000000
								}
							}
						}
					}
				}
				JOINT joint_10
				{
					OFFSET -0.127998 31.625000 75.753052
					CHANNELS 3 Zrotation Yrotation Xrotation
					JOINT joint_11
					{
						OFFSET -5.618004 131.132996 -19.557007
						CHANNELS 3 Zrotation Yrotation Xrotation
						JOINT joint_12
						{
							OFFSET 46.488998 30.127991 -261.826050
							CHANNELS 3 Zrotation Yrotation Xrotation
							JOINT joint_13
							{
								OFFSET 66.021003 0.474030 -235.934937
								CHANNELS 3 Zrotation Yrotation Xrotation
								End Site
								{
									OFFSET 0.000000 0.000000 0.000000
								}
							}
						}
					}
				}
			}
		}
	}
	JOINT joint_14
	{
		OFFSET 15.887001 -78.871004 -94.561035
		CHANNELS 3 Zrotation Yrotation Xrotation
		JOINT joint_15
		{
			OFFSET -4.133003 6.714001 -473.615967
			CHANNELS 3 Zrotation Yrotation Xrotation
			JOINT joint_16
			{
				OFFSET -19.541000 5.340000 -399.613007
				CHANNELS 3 Zrotation Yrotation Xrotation
				JOINT joint_17
				{
					OFFSET 164.317001 41.657999 -73.195000
					CHANNELS 3 Zrotation Yrotation Xrotation
					End Site
					{
						OFFSET 0.000000 0.000000 0.000000
					}
				}
			}
		}
	}
	JOINT joint_18
	{
		OFFSET 6.513000 77.960991 -96.406982
		CHANNELS 3 Zrotation Yrotation Xrotation
		JOINT joint_19
		{
			OFFSET -10.660004 -8.518997 -473.485016
			CHANNELS 3 Zrotation Yrotation Xrotation
			JOINT joint_20
			{
				OFFSET -36.967995 -11.098999 -398.260010
				CHANNELS 3 Zrotation Yrotation Xrotation
				JOINT joint_21
				{
					OFFSET 166.067997 30.363998 -74.785000
					CHANNELS 3 Zrotation Yrotation Xrotation
					End Site
					{
						OFFSET 0.000000 0.000000 0.000000
					}
				}
			}
		}
	}
}
MOTION
Frames: 16
Frame Time: 0.016667
-2701.895996 882.693481 1067.707031 -2.539030 -1.301409 0.450943 0.165852 1.341231 -1.597347 0.243602 -0.068416 0.336642 0.183826 0.145166 -0.213138 -0.006114 -6.064924 0.965969 0.000000 0.000000 0.000000 -1.195925 3.154602 -2.797151 -0.470919 3.204636 1.002807 -0.318977 -3.225077 -1.766548 0.000000 0.000000 0.000000 -2.821676 7.921856 2.976781 2.738353 8.633237 1.983573 -0.717317 -15.492745 -3.463547 0.000000 0.000000 0.000000 0.338894 -5.069838 -6.036862 0.655625 22.892187 2.701452 0.100465 -6.683756 1.722667 0.000000 0.000000 0.000000 -0.060469 1.534162 3.348688 -0.083997 8.523265 -1.050175 0.058992 -0.777526 0.168836 0.000000 0.000000 0.000000 
-2691.402588 881.132996 1069.110962 -2.704497 -1.218464 0.453079 0.267314 0.949142 -1.482246 0.330412 -0.057641 0.299038 0.276253 0.110576 -0.191367 -0.015324 -5.947794 0.969812 0.000000 0.000000 0.000000 -1.275825 2.740788 -2.519353 -0.454454 2.761357 0.900690 -0.471257 -2.453258 -2.454714 0.000000 0.000000 0.000000 -2.819657 7.376275 3.023142 2.572252 8.071836 1.777773 -0.328093 -13.613604 -1.746599 0.000000 0.000000 0.000000 0.542473 -5.529978 -6.664896 0.877990 25.013271 4.142098 0.338220 -7.515341 2.028417 0.000000 0.000000 0.000000 -0.110921 1.527539 3.549363 -0.138698 9.620159 -1.292319 0.009103 -0.684124 0.129849 0.000000 0.000000 0.000000 
-2681.005127 879.595886 1070.290039 -2.865775 -1.089238 0.428861 0.366105 0.579699 -1.269575 0.411807 -0.045976 0.235609 0.366496 0.072509 -0.167791 -0.012993 -5.904125 0.946930 0.000000 0.000000 0.000000 -1.396390 2.390225 -2.247716 -0.442761 2.374438 0.750175 -0.587662 -1.856834 -2.990509 0.000000 0.000000 0.000000 -2.818937 6.907929 2.982978 2.456266 7.593800 1.622384 0.007566 -12.169715 -0.352374 0.000000 0.000000 0.000000 0.071979 -6.180014 -7.336326 0.424289 27.389747 5.150700 -0.415027 -8.297153 1.914259 0.000000 0.000000 0.000000 -0.203341 1.574866 3.800425 -0.228776 10.497293 -1.568485 -0.085361 -0.550452 0.064189 0.000000 0.000000 0.000000 
-2671.061768 878.228027 1071.089966 -3.031549 -0.907014 0.377767 0.466835 0.258775 -0.975445 0.498499 -0.015080 0.176537 0.463497 0.024413 -0.146004 0.004148 -5.984232 0.893081 0.000000 0.000000 0.000000 -1.560029 2.106416 -2.003552 -0.449716 2.048219 0.511625 -0.650803 -1.558782 -3.288311 0.000000 0.000000 0.000000 -2.840646 6.571040 2.908008 2.414623 7.258660 1.533281 0.211174 -11.535964 0.456706 0.000000 0.000000 0.000000 -1.611774 -7.256632 -8.018257 -1.236138 30.433885 5.227121 -3.197406 -9.230823 1.024681 0.000000 0.000000 0.000000 -0.362641 1.673651 4.104614 -0.379277 11.115766 -1.889105 -0.249154 -0.407671 -0.032832 0.000000 0.000000 0.000000 
-2661.215576 876.882446 1071.665039 -3.183384 -0.671117 0.347443 0.544831 -0.054534 -0.685318 0.587460 0.026629 0.147859 0.563022 -0.030324 -0.124321 0.033699 -6.136354 0.806646 0.000000 0.000000 0.000000 -1.765486 1.884608 -1.796722 -0.464021 1.780128 0.259185 -0.680022 -1.436474 -3.431053 0.000000 0.000000 0.000000 -2.860929 6.321872 2.813622 2.400349 7.012105 1.427582 0.333038 -11.348411 0.929601 0.000000 0.000000 0.000000 -3.932955 -8.570337 -8.704001 -3.534016 33.478627 4.559362 -7.407855 -10.388819 -0.361126 0.000000 0.000000 0.000000 -0.564097 1.816503 4.399520 -0.569737 11.514759 -2.230925 -0.458937 -0.233394 -0.154719 0.000000 0.000000 0.000000 
-2651.325195 875.422974 1072.121948 -3.347384 -0.363911 0.398599 0.570143 -0.417277 -0.480857 0.660034 0.075170 0.140690 0.647327 -0.097455 -0.107629 0.064107 -6.286046 0.720975 0.000000 0.000000 0.000000 -1.959512 1.716106 -1.594279 -0.477547 1.569476 0.066135 -0.732988 -1.284578 -3.695741 0.000000 0.000000 0.000000 -2.867062 6.201821 2.701741 2.402484 6.893981 1.306357 0.395619 -11.405717 1.163837 0.000000 0.000000 0.000000 -5.811636 -10.010654 -9.442415 -5.391308 35.918876 3.678857 -11.281422 -11.148736 -1.681769 0.000000 0.000000 0.000000 -0.737339 1.929353 4.569248 -0.736736 11.806011 -2.507842 -0.643101 0.001776 -0.275917 0.000000 0.000000 0.000000 
-2641.380615 873.850586 1072.461060 -3.559828 0.050499 0.540452 0.541284 -0.883330 -0.356060 0.713696 0.132721 0.132007 0.715021 -0.189156 -0.102652 0.091164 -6.412769 0.650938 0.000000 0.000000 0.000000 -2.129999 1.604063 -1.384173 -0.486943 1.422375 -0.011676 -0.841379 -1.031179 -4.244694 0.000000 0.000000 0.000000 -2.854421 6.274058 2.580333 2.436682 6.968877 1.175552 0.384817 -11.812705 1.103177 0.000000 0.000000 0.000000 -7.073268 -11.662126 -10.283228 -6.638141 38.012952 2.807867 -14.410295 -11.038832 -2.875321 0.000000 0.000000 0.000000 -0.853228 1.966999 4.587304 -0.851374 12.009117 -2.697745 -0.768877 0.289660 -0.381230 0.000000 0.000000 0.000000 
-2631.392578 872.162231 1072.682983 -3.791181 0.534744 0.742294 0.468586 -1.390773 -0.273318 0.752200 0.192708 0.124484 0.769546 -0.294607 -0.102074 0.119007 -6.537308 0.582844 0.000000 0.000000 0.000000 -2.290706 1.547464 -1.185956 -0.494628 1.334920 -0.024143 -0.971600 -0.759813 -4.920927 0.000000 0.000000 0.000000 -2.829579 6.475268 2.450604 2.487731 7.171832 1.019840 0.314872 -12.464570 0.803644 0.000000 0.000000 0.000000 -8.054018 -13.479022 -11.162419 -7.627272 39.694553 1.833586 -17.247944 -10.286052 -4.071954 0.000000 0.000000 0.000000 -0.938323 1.975037 4.505045 -0.939363 12.111448 -2.823623 -0.864124 0.624993 -0.481985 0.000000 0.000000 0.000000 
-2621.248047 870.212585 1072.890015 -3.986693 0.995634 0.967212 0.371455 -1.825435 -0.190075 0.760934 0.243869 0.112671 0.794475 -0.386124 -0.095666 0.148066 -6.653689 0.510308 0.000000 0.000000 0.000000 -2.433010 1.530478 -1.011054 -0.501049 1.289660 -0.053813 -1.085579 -0.495711 -5.530533 0.000000 0.000000 0.000000 -2.801706 6.657835 2.305456 2.499737 7.349809 0.811335 0.251297 -12.853315 0.531138 0.000000 0.000000 0.000000 -8.581489 -15.153648 -12.007437 -8.220543 40.402749 0.985121 -19.030216 -9.244592 -4.936782 0.000000 0.000000 0.000000 -1.002670 2.018688 4.370749 -1.013336 12.181028 -2.877713 -0.944992 1.032198 -0.589870 0.000000 0.000000 0.000000 
-2610.966309 868.080261 1073.151001 -4.133558 1.424456 1.234279 0.262781 -2.166074 -0.103347 0.727772 0.275900 0.095757 0.774317 -0.455908 -0.076726 0.181166 -6.751238 0.420303 0.000000 0.000000 0.000000 -2.550345 1.556360 -0.872328 -0.508768 1.289926 -0.142040 -1.175475 -0.221151 -6.027249 0.000000 0.000000 0.000000 -2.758666 6.777650 2.130364 2.444898 7.453190 0.520087 0.212006 -12.785140 0.369642 0.000000 0.000000 0.000000 -8.444336 -16.593361 -12.942744 -8.216285 40.035154 0.514006 -19.041483 -7.757809 -5.267746 0.000000 0.000000 0.000000 -1.053119 2.111357 4.153452 -1.083841 12.197177 -2.841013 -1.022444 1.541812 -0.715485 0.000000 0.000000 0.000000 
-2600.529541 865.686584 1073.396973 -4.239412 1.827497 1.527231 0.148967 -2.427505 -0.023464 0.654665 0.293868 0.076945 0.709935 -0.511476 -0.051228 0.215444 -6.842142 0.325990 0.000000 0.000000 0.000000 -2.645901 1.620713 -0.753350 -0.516913 1.331317 -0.257056 -1.249950 0.051014 -6.454907 0.000000 0.000000 0.000000 -2.709516 6.876198 1.941571 2.347032 7.527768 0.176173 0.174545 -12.451853 0.228819 0.000000 0.000000 0.000000 -7.902538 -17.823562 -13.921387 -7.861018 38.799712 0.244090 -17.829255 -5.944119 -5.242553 0.000000 0.000000 0.000000 -1.086051 2.240223 3.883046 -1.143463 12.181866 -2.730759 -1.087059 2.127932 -0.850171 0.000000 0.000000 0.000000 
-2589.772949 862.637329 1073.536987 -4.302876 2.138543 1.746332 0.055981 -2.558268 0.088467 0.551770 0.304663 0.043038 0.613295 -0.537347 -0.021787 0.243876 -6.953562 0.255809 0.000000 0.000000 0.000000 -2.734831 1.693791 -0.614133 -0.523209 1.380897 -0.378125 -1.298039 0.263154 -6.748769 0.000000 0.000000 0.000000 -2.706872 6.934063 1.776407 2.225402 7.565099 -0.155554 0.140651 -11.922809 0.111496 0.000000 0.000000 0.000000 -7.459486 -18.715359 -14.591824 -7.662754 36.646603 -0.207945 -16.388924 -4.605397 -5.049568 0.000000 0.000000 0.000000 -1.089263 2.430451 3.713659 -1.168763 12.264209 -2.601897 -1.118681 2.735171 -0.975024 0.000000 0.000000 0.000000 
-2578.703613 858.787598 1073.670044 -4.327077 2.336543 1.833988 -0.005424 -2.532603 0.277090 0.415715 0.306400 -0.021278 0.481483 -0.517148 0.011067 0.261199 -7.098805 0.231194 0.000000 0.000000 0.000000 -2.820520 1.767354 -0.413282 -0.533728 1.427935 -0.532449 -1.307284 0.353542 -6.833760 0.000000 0.000000 0.000000 -2.783595 6.932019 1.645392 2.073633 7.550132 -0.456235 0.105569 -11.149552 0.003662 0.000000 0.000000 0.000000 -7.363009 -19.085921 -14.737054 -7.898017 32.890699 -1.139546 -15.007600 -4.216645 -4.679739 0.000000 0.000000 0.000000 -1.053790 2.745709 3.702988 -1.144690 12.362674 -2.426550 -1.104167 3.396190 -1.090770 0.000000 0.000000 0.000000 
-2567.315674 854.283203 1073.697021 -4.241535 2.422086 1.898198 -0.082458 -2.339440 0.396662 0.236154 0.277532 -0.052280 0.298004 -0.461393 0.049922 0.272471 -7.266750 0.232596 0.000000 0.000000 0.000000 -2.894184 1.848509 -0.179373 -0.545376 1.482146 -0.705760 -1.291983 0.391479 -6.779403 0.000000 0.000000 0.000000 -2.905138 6.885362 1.525558 1.894637 7.493541 -0.726113 0.068580 -10.176155 -0.092996 0.000000 0.000000 0.000000 -7.362778 -18.959896 -14.627116 -8.214158 27.844153 -2.124593 -13.462108 -3.624812 -4.286280 0.000000 0.000000 0.000000 -1.015020 3.131079 3.740903 -1.106804 12.555109 -2.213712 -1.071676 4.113826 -1.210674 0.000000 0.000000 0.000000 
-2555.431152 849.177673 1073.223999 -4.048717 2.395282 2.022587 -0.194003 -2.008976 0.340035 0.043761 0.219959 -0.010172 0.092255 -0.389715 0.080392 0.282166 -7.446027 0.241228 0.000000 0.000000 0.000000 -2.951750 1.932139 0.020809 -0.541205 1.543802 -0.801968 -1.281642 0.515218 -6.740146 0.000000 0.000000 0.000000 -3.025890 6.830020 1.420143 1.723436 7.429242 -0.943273 0.042228 -9.208310 -0.142095 0.000000 0.000000 0.000000 -7.181313 -18.742339 -14.521834 -8.228302 23.396996 -2.639656 -11.975402 -1.865402 -4.175064 0.000000 0.000000 0.000000 -0.983070 3.419400 3.797781 -1.066514 13.203382 -2.090081 -1.031467 4.773763 -1.318121 0.000000 0.000000 0.000000 
-2542.983154 843.414062 1072.348999 -3.843190 2.236242 2.106420 -0.305667 -1.556806 0.304990 -0.133422 0.171751 0.000558 -0.092745 -0.290067 0.094719 0.289307 -7.669885 0.265891 0.000000 0.000000 0.000000 -2.990456 2.006937 0.195371 -0.514977 1.601737 -0.807491 -1.288568 0.800440 -6.781838 0.000000 0.000000 0.000000 -3.145479 6.745888 1.326446 1.561353 7.338929 -1.078482 0.025581 -8.215704 -0.149299 0.000000 0.000000 0.000000 -6.700114 -18.747618 -14.304331 -7.831076 20.478727 -2.652674 -10.550032 1.379720 -4.451630 0.000000 0.000000 0.000000 -0.895130 3.654589 3.939728 -0.967597 14.300176 -1.988680 -0.916095 5.403262 -1.389894 0.000000 0.000000 0.000000 
